%TF.GenerationSoftware,KiCad,Pcbnew,9.0.3*%
%TF.CreationDate,2025-08-05T13:39:02+02:00*%
%TF.ProjectId,Robotic_arm,526f626f-7469-4635-9f61-726d2e6b6963,rev?*%
%TF.SameCoordinates,Original*%
%TF.FileFunction,Copper,L1,Top*%
%TF.FilePolarity,Positive*%
%FSLAX46Y46*%
G04 Gerber Fmt 4.6, Leading zero omitted, Abs format (unit mm)*
G04 Created by KiCad (PCBNEW 9.0.3) date 2025-08-05 13:39:02*
%MOMM*%
%LPD*%
G01*
G04 APERTURE LIST*
G04 Aperture macros list*
%AMRoundRect*
0 Rectangle with rounded corners*
0 $1 Rounding radius*
0 $2 $3 $4 $5 $6 $7 $8 $9 X,Y pos of 4 corners*
0 Add a 4 corners polygon primitive as box body*
4,1,4,$2,$3,$4,$5,$6,$7,$8,$9,$2,$3,0*
0 Add four circle primitives for the rounded corners*
1,1,$1+$1,$2,$3*
1,1,$1+$1,$4,$5*
1,1,$1+$1,$6,$7*
1,1,$1+$1,$8,$9*
0 Add four rect primitives between the rounded corners*
20,1,$1+$1,$2,$3,$4,$5,0*
20,1,$1+$1,$4,$5,$6,$7,0*
20,1,$1+$1,$6,$7,$8,$9,0*
20,1,$1+$1,$8,$9,$2,$3,0*%
G04 Aperture macros list end*
%TA.AperFunction,ComponentPad*%
%ADD10R,2.600000X2.600000*%
%TD*%
%TA.AperFunction,ComponentPad*%
%ADD11C,2.600000*%
%TD*%
%TA.AperFunction,ComponentPad*%
%ADD12C,1.250000*%
%TD*%
%TA.AperFunction,ComponentPad*%
%ADD13R,1.350000X1.350000*%
%TD*%
%TA.AperFunction,ComponentPad*%
%ADD14C,1.350000*%
%TD*%
%TA.AperFunction,HeatsinkPad*%
%ADD15R,3.100000X3.100000*%
%TD*%
%TA.AperFunction,SMDPad,CuDef*%
%ADD16RoundRect,0.062500X0.062500X0.375000X-0.062500X0.375000X-0.062500X-0.375000X0.062500X-0.375000X0*%
%TD*%
%TA.AperFunction,SMDPad,CuDef*%
%ADD17RoundRect,0.062500X0.375000X0.062500X-0.375000X0.062500X-0.375000X-0.062500X0.375000X-0.062500X0*%
%TD*%
%TA.AperFunction,ComponentPad*%
%ADD18R,1.700000X1.700000*%
%TD*%
%TA.AperFunction,ComponentPad*%
%ADD19C,1.700000*%
%TD*%
%TA.AperFunction,SMDPad,CuDef*%
%ADD20RoundRect,0.100000X0.130000X0.100000X-0.130000X0.100000X-0.130000X-0.100000X0.130000X-0.100000X0*%
%TD*%
%TA.AperFunction,Conductor*%
%ADD21C,0.200000*%
%TD*%
G04 APERTURE END LIST*
D10*
%TO.P,J4,1,Pin_1*%
%TO.N,+5V*%
X132800000Y-75500000D03*
D11*
%TO.P,J4,2,Pin_2*%
%TO.N,GND*%
X132800000Y-81500000D03*
%TO.P,J4,3,Pin_3*%
%TO.N,unconnected-(J4-Pin_3-Pad3)*%
X137500000Y-78500000D03*
%TD*%
D12*
%TO.P,J1,*%
%TO.N,*%
X151750000Y-79892500D03*
X151750000Y-75142500D03*
X143250000Y-79892500D03*
X143250000Y-75142500D03*
D13*
%TO.P,J1,1,MISO*%
%TO.N,/MISO*%
X149500000Y-76517500D03*
D14*
%TO.P,J1,2,VCC*%
%TO.N,+5V*%
X147500000Y-76517500D03*
%TO.P,J1,3,SCK*%
%TO.N,/SCK*%
X145500000Y-76517500D03*
%TO.P,J1,4,MOSI*%
%TO.N,/MOSI*%
X149500000Y-78517500D03*
%TO.P,J1,5,~{RST}*%
%TO.N,Net-(J1-~{RST})*%
X147500000Y-78517500D03*
%TO.P,J1,6,GND*%
%TO.N,GND*%
X145500000Y-78517500D03*
%TD*%
D15*
%TO.P,U2,33,GND*%
%TO.N,GND*%
X152500000Y-85000000D03*
D16*
%TO.P,U2,32,PD2*%
%TO.N,unconnected-(U2-PD2-Pad32)*%
X154250000Y-87437500D03*
%TO.P,U2,31,PD1*%
%TO.N,unconnected-(U2-PD1-Pad31)*%
X153750000Y-87437500D03*
%TO.P,U2,30,PD0*%
%TO.N,unconnected-(U2-PD0-Pad30)*%
X153250000Y-87437500D03*
%TO.P,U2,29,~{RESET}/PC6*%
%TO.N,Net-(J1-~{RST})*%
X152750000Y-87437500D03*
%TO.P,U2,28,PC5*%
%TO.N,unconnected-(U2-PC5-Pad28)*%
X152250000Y-87437500D03*
%TO.P,U2,27,PC4*%
%TO.N,unconnected-(U2-PC4-Pad27)*%
X151750000Y-87437500D03*
%TO.P,U2,26,PC3*%
%TO.N,unconnected-(U2-PC3-Pad26)*%
X151250000Y-87437500D03*
%TO.P,U2,25,PC2*%
%TO.N,unconnected-(U2-PC2-Pad25)*%
X150750000Y-87437500D03*
D17*
%TO.P,U2,24,PC1*%
%TO.N,/A1*%
X150062500Y-86750000D03*
%TO.P,U2,23,PC0*%
%TO.N,/A0*%
X150062500Y-86250000D03*
%TO.P,U2,22,ADC7*%
%TO.N,unconnected-(U2-ADC7-Pad22)*%
X150062500Y-85750000D03*
%TO.P,U2,21,GND*%
%TO.N,GND*%
X150062500Y-85250000D03*
%TO.P,U2,20,AREF*%
%TO.N,unconnected-(U2-AREF-Pad20)*%
X150062500Y-84750000D03*
%TO.P,U2,19,ADC6*%
%TO.N,unconnected-(U2-ADC6-Pad19)*%
X150062500Y-84250000D03*
%TO.P,U2,18,AVCC*%
%TO.N,+5V*%
X150062500Y-83750000D03*
%TO.P,U2,17,PB5*%
%TO.N,/SCK*%
X150062500Y-83250000D03*
D16*
%TO.P,U2,16,PB4*%
%TO.N,/MISO*%
X150750000Y-82562500D03*
%TO.P,U2,15,PB3*%
%TO.N,/MOSI*%
X151250000Y-82562500D03*
%TO.P,U2,14,PB2*%
%TO.N,unconnected-(U2-PB2-Pad14)*%
X151750000Y-82562500D03*
%TO.P,U2,13,PB1*%
%TO.N,unconnected-(U2-PB1-Pad13)*%
X152250000Y-82562500D03*
%TO.P,U2,12,PB0*%
%TO.N,unconnected-(U2-PB0-Pad12)*%
X152750000Y-82562500D03*
%TO.P,U2,11,PD7*%
%TO.N,/D7*%
X153250000Y-82562500D03*
%TO.P,U2,10,PD6*%
%TO.N,/D6*%
X153750000Y-82562500D03*
%TO.P,U2,9,PD5*%
%TO.N,/D5*%
X154250000Y-82562500D03*
D17*
%TO.P,U2,8,XTAL2/PB7*%
%TO.N,unconnected-(U2-XTAL2{slash}PB7-Pad8)*%
X154937500Y-83250000D03*
%TO.P,U2,7,XTAL1/PB6*%
%TO.N,unconnected-(U2-XTAL1{slash}PB6-Pad7)*%
X154937500Y-83750000D03*
%TO.P,U2,6,VCC*%
%TO.N,+5V*%
X154937500Y-84250000D03*
%TO.P,U2,5,GND*%
%TO.N,GND*%
X154937500Y-84750000D03*
%TO.P,U2,4,VCC*%
%TO.N,+5V*%
X154937500Y-85250000D03*
%TO.P,U2,3,GND*%
%TO.N,GND*%
X154937500Y-85750000D03*
%TO.P,U2,2,PD4*%
%TO.N,unconnected-(U2-PD4-Pad2)*%
X154937500Y-86250000D03*
%TO.P,U2,1,PD3*%
%TO.N,unconnected-(U2-PD3-Pad1)*%
X154937500Y-86750000D03*
%TD*%
D18*
%TO.P,J3,1,Pin_1*%
%TO.N,/A0*%
X145500000Y-85500000D03*
D19*
%TO.P,J3,2,Pin_2*%
%TO.N,/A1*%
X145500000Y-88040000D03*
%TD*%
D18*
%TO.P,J2,1,Pin_1*%
%TO.N,/D5*%
X157000000Y-80040000D03*
D19*
%TO.P,J2,2,Pin_2*%
%TO.N,/D6*%
X157000000Y-77500000D03*
%TO.P,J2,3,Pin_3*%
%TO.N,/D7*%
X157000000Y-74960000D03*
%TD*%
D20*
%TO.P,C3,1*%
%TO.N,+5V*%
X140975000Y-82500000D03*
%TO.P,C3,2*%
%TO.N,GND*%
X140335000Y-82500000D03*
%TD*%
%TO.P,C2,1*%
%TO.N,+5V*%
X140975000Y-85000000D03*
%TO.P,C2,2*%
%TO.N,GND*%
X140335000Y-85000000D03*
%TD*%
%TO.P,C1,1*%
%TO.N,+5V*%
X140975000Y-87500000D03*
%TO.P,C1,2*%
%TO.N,GND*%
X140335000Y-87500000D03*
%TD*%
D21*
%TO.N,GND*%
X140335000Y-87500000D02*
X140335000Y-87835000D01*
X140335000Y-87835000D02*
X143901000Y-91401000D01*
X143901000Y-91401000D02*
X151806898Y-91401000D01*
X155457898Y-84750000D02*
X154937500Y-84750000D01*
X151806898Y-91401000D02*
X156077000Y-87130898D01*
X156077000Y-87130898D02*
X156077000Y-85369102D01*
X156077000Y-85369102D02*
X155457898Y-84750000D01*
%TO.N,+5V*%
X140975000Y-87500000D02*
X144475000Y-91000000D01*
X144475000Y-91000000D02*
X151640798Y-91000000D01*
X155676000Y-86964798D02*
X155676000Y-85535202D01*
X151640798Y-91000000D02*
X155676000Y-86964798D01*
X155390798Y-85250000D02*
X154937500Y-85250000D01*
X155676000Y-85535202D02*
X155390798Y-85250000D01*
%TO.N,GND*%
X140335000Y-85000000D02*
X140335000Y-87500000D01*
X140335000Y-82500000D02*
X140335000Y-85000000D01*
X132800000Y-81500000D02*
X139335000Y-81500000D01*
X139335000Y-81500000D02*
X140335000Y-82500000D01*
%TO.N,+5V*%
X140975000Y-85000000D02*
X140975000Y-87500000D01*
X140975000Y-82500000D02*
X140975000Y-85000000D01*
X132800000Y-75500000D02*
X137500000Y-75500000D01*
X137500000Y-75500000D02*
X140975000Y-78975000D01*
X140975000Y-78975000D02*
X140975000Y-82500000D01*
%TO.N,GND*%
X145500000Y-78517500D02*
X145500000Y-81140798D01*
X145500000Y-81140798D02*
X149609202Y-85250000D01*
X149609202Y-85250000D02*
X150062500Y-85250000D01*
%TO.N,+5V*%
X147500000Y-76517500D02*
X147500000Y-75562906D01*
X147500000Y-75562906D02*
X149253906Y-73809000D01*
X158151000Y-81489798D02*
X155390798Y-84250000D01*
X155390798Y-84250000D02*
X154937500Y-84250000D01*
X149253906Y-73809000D02*
X157476760Y-73809000D01*
X157476760Y-73809000D02*
X158151000Y-74483240D01*
X158151000Y-74483240D02*
X158151000Y-81489798D01*
%TO.N,/SCK*%
X145500000Y-76517500D02*
X146119727Y-76517500D01*
X146119727Y-76517500D02*
X147102227Y-77500000D01*
X147102227Y-77500000D02*
X147910773Y-77500000D01*
X147910773Y-77500000D02*
X148524000Y-78113227D01*
X148524000Y-78113227D02*
X148524000Y-81711500D01*
X148524000Y-81711500D02*
X150062500Y-83250000D01*
%TO.N,Net-(J1-~{RST})*%
X147500000Y-78517500D02*
X146524000Y-77541500D01*
X146524000Y-77541500D02*
X145095727Y-77541500D01*
X143500000Y-81000000D02*
X143500000Y-87667760D01*
X145095727Y-77541500D02*
X144500000Y-78137227D01*
X144500000Y-78137227D02*
X144500000Y-80000000D01*
X144500000Y-80000000D02*
X143500000Y-81000000D01*
X143500000Y-87667760D02*
X145023240Y-89191000D01*
X145023240Y-89191000D02*
X151449798Y-89191000D01*
X151449798Y-89191000D02*
X152750000Y-87890798D01*
X152750000Y-87890798D02*
X152750000Y-87437500D01*
%TO.N,/MOSI*%
X149500000Y-78517500D02*
X148524000Y-77541500D01*
X148524000Y-77541500D02*
X148524000Y-75541500D01*
X150839438Y-75541500D02*
X152676000Y-77378062D01*
X151250000Y-81961202D02*
X151250000Y-82562500D01*
X148524000Y-75541500D02*
X150839438Y-75541500D01*
X152676000Y-77378062D02*
X152676000Y-80535202D01*
X152676000Y-80535202D02*
X151250000Y-81961202D01*
%TO.N,/MISO*%
X149500000Y-76517500D02*
X150375000Y-76517500D01*
X150375000Y-76517500D02*
X150750000Y-76892500D01*
X150750000Y-76892500D02*
X150750000Y-82562500D01*
%TO.N,/D5*%
X157000000Y-80040000D02*
X156772500Y-80040000D01*
X156772500Y-80040000D02*
X154250000Y-82562500D01*
%TO.N,/D6*%
X157000000Y-77500000D02*
X154077000Y-80423000D01*
X154077000Y-80423000D02*
X154077000Y-81701302D01*
X154077000Y-81701302D02*
X153750000Y-82028302D01*
X153750000Y-82028302D02*
X153750000Y-82562500D01*
%TO.N,/D7*%
X157000000Y-74960000D02*
X153676000Y-78284000D01*
X153676000Y-78284000D02*
X153676000Y-81535202D01*
X153676000Y-81535202D02*
X153250000Y-81961202D01*
X153250000Y-81961202D02*
X153250000Y-82562500D01*
%TO.N,/A1*%
X145500000Y-88040000D02*
X146790000Y-86750000D01*
X146790000Y-86750000D02*
X150062500Y-86750000D01*
%TO.N,/A0*%
X145500000Y-85500000D02*
X146250000Y-86250000D01*
X146250000Y-86250000D02*
X150062500Y-86250000D01*
%TD*%
M02*
